<svg xmlns="http://www.w3.org/2000/svg" viewBox="0 0 24 24" fill="#000000" width="48" height="48">
  <path d="M11.572 0c-.176 0-.31.001-.358.007a19.76 19.76 0 0 1-.364.033C7.443.346 4.25 2.185 2.228 5.012a11.875 11.875 0 0 0-2.119 5.243c-.096.659-.108.854-.108 1.747s.012 1.089.108 1.748c.652 4.506 3.86 8.292 8.209 9.695.779.25 1.6.422 2.534.525.363.04 1.935.04 2.299 0 1.611-.178 2.977-.577 4.323-1.264.207-.106.247-.134.219-.158-.02-.013-.9-1.193-1.955-2.62l-1.919-2.592-2.404-3.558a338.739 338.739 0 0 0-2.422-3.556c-.009-.002-.018 1.579-.023 3.51-.007 3.38-.01 3.515-.052 3.595-.058.115-.09.163-.16.211-.05.034-.124.048-.235.048h-.158l-.081-.05a.485.485 0 0 1-.146-.16l-.051-.095.002-4.699.003-4.702.072-.092a.67.67 0 0 1 .181-.151c.08-.045.12-.053.26-.053.177 0 .252.032.36.16.035.038 1.337 1.999 2.895 4.361a10760.433 10760.433 0 0 0 4.735 7.17l1.9 2.879.096-.063a12.317 12.317 0 0 0 2.466-2.163 11.944 11.944 0 0 0 2.824-6.134c.096-.66.108-.854.108-1.748 0-.893-.012-1.088-.108-1.747-.652-4.506-3.859-8.292-8.208-9.695a12.597 12.597 0 0 0-2.499-.523A33.119 33.119 0 0 0 11.573 0zm4.069 7.217c.347 0 .408.005.486.047a.473.473 0 0 1 .237.277c.018.06.023 1.365.018 4.304l-.006 4.218-.744-1.14-.746-1.14v-3.066c0-1.982.01-3.097.023-3.15a.478.478 0 0 1 .233-.296c.096-.05.13-.054.5-.054z"/>
</svg>